<?xml version="1.0" encoding="utf-8"?>
<!-- Generator: Adobe Illustrator 26.0.3, SVG Export Plug-In . SVG Version: 6.00 Build 0)  -->
<svg version="1.0" id="Layer_2_1_" xmlns="http://www.w3.org/2000/svg" xmlns:xlink="http://www.w3.org/1999/xlink" x="0px" y="0px"
	 viewBox="0 0 283.2 217.1" style="enable-background:new 0 0 283.2 217.1;" xml:space="preserve">
<style type="text/css">
	.st0{fill:#C92027;}
</style>
<g>
	<g>
		<g>
			<g>
				<path class="st0" d="M71.4,97.6c-6.8-2-14.3-2.8-21.2-0.5c-5.8,1.9-10.7,5.9-13.4,11.5c-2.8,6.2-3,13.8-0.5,20.2
					c2.2,5.8,6.8,10,12.6,12c3.3,1.2,6.7,1.7,10.3,1.6c4-0.2,8.6-0.6,12.3-2.5v-11.8c-6.2,2.3-15.6,2.8-19.8-3.4c-2-3-2-7-0.6-10.1
					c1.2-3,4-4.8,7-5.6c4.5-1.2,9-0.2,13.4,1.1L71.4,97.6L71.4,97.6z"/>
				<path class="st0" d="M209.6,142.2c5.9,0,10.1-2.2,13.2-5.6v4.7h15.2v-25.8c0-4-0.3-8.6-2.6-12.1c-1.9-3-5-5-8.2-6.1
					c-9.3-3.3-19.9-0.9-28.9,2v11.4c5.3-2,11.5-3.1,17.3-2.6c4.2,0.3,7.5,2.6,7.5,7.2v0.8c-10.6-3.7-28.3-2.2-28.3,12.3v0.2
					C194.7,137.2,201.2,142.2,209.6,142.2z M215.4,132.4c-3.3,0-5.6-1.9-5.6-4.8v-0.2c0-6.8,9.2-5.9,13.4-4
					C223.1,128.8,219.9,132.4,215.4,132.4z"/>
				<path class="st0" d="M147.4,97.1h14.9v6.7l0.6-0.8c4.4-5.6,10.9-8.6,18-6.5c5.9,1.7,9.2,6.8,9.8,12.9c0.3,2.8,0.2,5.8,0.2,8.6
					c0,4.7,0,9.3,0,14c0,3.1,0,6.2,0,9.3h-15.1c0-8.1,0.2-16.2,0-24.1c0-3.6-1.6-7.2-5.6-7.8c-3.7-0.6-6.8,1.6-7.8,5.1
					c-0.2,1.6-0.2,3.3-0.2,5c0,2.5,0,5,0,7.5c0,4.8,0,9.5,0,14.3h-15.1L147.4,97.1L147.4,97.1z"/>
				<g>
					<g>
						<path class="st0" d="M142.7,135.7c-4.8,3.3-10.1,5.8-16,6.4c-6.2,0.6-12.6-0.8-17.6-4.4c-6.8,3.1-14.8,5.6-22.2,3.3
							c-5.6-1.7-8.4-6.7-9.2-12.1c-0.3-2.6-0.2-5.4-0.2-8.2c0-4.5,0-9,0-13.7c0-3.1,0-6.4,0-9.5h14c0,7,0.2,14.2,0.3,21.2
							c0.2,3.3-0.2,7.3,1.9,10c2,2.8,5.9,2.2,8.9,1.4c-6.2-12.9,0.6-30.2,14.5-34.5c5.8-1.9,13.4-1.6,18,2.6
							c3.7,3.3,4.8,8.4,3.7,13.1c-0.9,3.6-3,6.5-5.3,9.2c-3.1,3.6-6.8,6.5-10.7,9.3c5.3,3.9,14,1.1,19.9-2.6
							C142.7,127,142.7,135.7,142.7,135.7z M126.7,116.4c1.7-2.2,3.7-6.1,1.1-8.4c-1.7-1.6-4.5-1.2-6.4-0.2
							c-5.9,3.3-6.4,10.7-3.4,16.2C121.5,121.5,124.5,119,126.7,116.4C131.8,109.9,124.5,119,126.7,116.4z"/>
					</g>
					<path class="st0" d="M93.1,82.9c0,4.5-3.7,8.2-8.2,8.2c-4.5,0-8.2-3.7-8.2-8.2s3.7-8.2,8.2-8.2C89.2,74.7,93.1,78.4,93.1,82.9z
						"/>
				</g>
			</g>
			<g>
				<path class="st0" d="M245.9,135.7c3.6,0,3.6,5.4,0,5.4C242.3,141.1,242.3,135.7,245.9,135.7z M245.9,140.8c3.1,0,3-5-0.2-4.7
					C242.7,136.3,242.9,140.8,245.9,140.8z M244.8,136.9h1.1c1.2,0,1.6,1.7,0.3,1.7c0.3,0.5,0.6,0.9,0.9,1.4h-0.5l-0.9-1.4h-0.6v1.4
					h-0.3V136.9z M245.2,138.3h0.5c0.6,0,1.2-0.3,0.6-0.9c-0.2-0.2-0.9-0.2-1.1-0.2V138.3z"/>
			</g>
		</g>
	</g>
</g>
</svg>
